

Synopsis	

Nico's (Played byZaijan Jaranilla) hundrum daily existence simply cannot compete with the fantasy life he 
leads the world's most popular MMORPGΓÇöMETANOIA, as the swashbuckling vagabond Zero, together with his companions: 
the spiritist Mang Ernie (Jairus Aquino), renegade chi-master K'mao, apprentice weapon-smith Sumpak (Aaron Junatas), 
folk hero Ahdonis (Basty Alcances) and the beast master Cassandra (Mika Dela Cruz), they explore Metanoia's vast 
virtual landscape in search of untold on-line fortune and glory!

As the malevolent force surfaces and threatens to destroy everything they hold precious, the fate of two worlds rests 
upon the shoulder of one very unlikely champion. One who must first find way to burst out of his shell and discover 
the true hero within-before it's too late!


Description	


 IMDb Link........: http://www.imdb.com/title/tt1735221/
 Wikipedia Link...: http://en.wikipedia.org/wiki/RPG_Metanoia
 Official Site....: http://therpgmovie.com/

 Genre............: Animation | Adventure | Drama
 Distributor......: Star Records
 Year.............: 2013
 Country..........: Philippines
 Director.........: Luis C. Suarez

 Source...........: DVD Retail / zeldAIS


General

Complete name                            : RPG Metanoia (2010) DvdRip MKV 720p AC3 2.0 5.1 H.264 EngSub [Arnel].mkv
Format                                   : Matroska
Format version                           : Version 2
File size                                : 1.28 GiB
Duration                                 : 1h 43mn
Overall bit rate                         : 1 773 Kbps


Video

Format/Info                              : Advanced Video Codec
Format profile                           : High@L3.1
Format settings, CABAC                   : Yes
Format settings, ReFrames                : 4 frames
Codec ID                                 : V_MPEG4/ISO/AVC
Duration                                 : 1h 43mn
Bit rate                                 : 1 567 Kbps
Width                                    : 1 280 pixels
Height                                   : 720 pixels
Display aspect ratio                     : 16:9
Frame rate mode                          : Constant
Frame rate                               : 29.970 fps
Color space                              : YUV
Chroma subsampling                       : 4:2:0
Bit depth                                : 8 bits
Scan type                                : Progressive
Bits/(Pixel*Frame)                       : 0.057
Stream size                              : 1.12 GiB (87%)
Writing library                          : x264 core 120

Audio

Format/Info                              : Audio Coding 3
Mode extension                           : CM (complete main)
Format settings, Endianness              : Big
Codec ID                                 : A_AC3
Duration                                 : 1h 43mn
Bit rate mode                            : Constant
Bit rate                                 : 192 Kbps
Channel(s)                               : 6 channels
Channel positions                        : Front: L C R, Side: L R, LFE
Sampling rate                            : 48.0 KHz
Bit depth                                : 16 bits
Compression mode                         : Lossy
Stream size                              : 142 MiB (11%)
Default                                  : Yes
Forced                                   : No

Text #1

Format                                   : VobSub
Codec ID                                 : S_VOBSUB
Codec ID/Info                            : The same subtitle format used on DVDs
Language                                 : Tagalog
Default                                  : No
Forced                                   : No

Text #2

Format                                   : VobSub
Codec ID                                 : S_VOBSUB
Codec ID/Info                            : The same subtitle format used on DVDs
Language                                 : English
Default                                  : Yes
Forced                                   : No

Screenshots 
